<?xml version="1.0" encoding="UTF-8"?>
<svg width="24px" height="24px" viewBox="0 0 24 24" version="1.1" xmlns="http://www.w3.org/2000/svg" xmlns:xlink="http://www.w3.org/1999/xlink">
    <title>Icons/ic_chat</title>
    <g id="Icons/ic_chat" stroke="none" stroke-width="1" fill="none" fill-rule="evenodd">
        <path d="M2.016,21.584 L6,17.6 L20.016,17.6 C20.56,17.6 21.024,17.4 21.408,17 C21.792,16.6 21.984,16.128 21.984,15.584 L21.984,15.584 L21.984,3.584 C21.984,3.04 21.792,2.576 21.408,2.192 C21.024,1.808 20.56,1.616 20.016,1.616 L20.016,1.616 L3.984,1.616 C3.44,1.616 2.976,1.808 2.592,2.192 C2.208,2.576 2.016,3.04 2.016,3.584 L2.016,3.584 L2.016,21.584 Z M18,7.616 L6,7.616 L6,5.6 L18,5.6 L18,7.616 Z M18,10.616 L6,10.616 L6,8.6 L18,8.6 L18,10.616 Z M14.016,13.616 L6,13.616 L6,11.6 L14.016,11.6 L14.016,13.616 Z" id="" fill="#444444"></path>
    </g>
</svg>