<?xml version="1.0" encoding="UTF-8"?>
<svg width="24px" height="24px" viewBox="0 0 24 24" version="1.1" xmlns="http://www.w3.org/2000/svg" xmlns:xlink="http://www.w3.org/1999/xlink">
    <title>Icons/ic_calender</title>
    <g id="Icons/ic_calender" stroke="none" stroke-width="1" fill="none" fill-rule="evenodd">
        <path d="M18.984,21.584 C19.528,21.584 20,21.392 20.4,21.008 C20.8,20.624 21,20.16 21,19.616 L21,19.616 L21,5.6 C21,5.056 20.8,4.584 20.4,4.184 C20,3.784 19.528,3.584 18.984,3.584 L18.984,3.584 L18,3.584 L18,1.616 L15.984,1.616 L15.984,3.584 L8.016,3.584 L8.016,1.616 L6,1.616 L6,3.584 L5.016,3.584 C4.456,3.584 3.98,3.784 3.588,4.184 C3.196,4.584 3,5.056 3,5.6 L3,5.6 L3,19.616 C3,20.16 3.196,20.624 3.588,21.008 C3.98,21.392 4.456,21.584 5.016,21.584 L5.016,21.584 L18.984,21.584 Z M18.984,19.616 L5.016,19.616 L5.016,8.6 L18.984,8.6 L18.984,19.616 Z M17.016,12.584 L17.016,10.616 L15,10.616 L15,12.584 L17.016,12.584 Z M12.984,12.584 L12.984,10.616 L11.016,10.616 L11.016,12.584 L12.984,12.584 Z M9,12.584 L9,10.616 L6.984,10.616 L6.984,12.584 L9,12.584 Z" id="" fill="#444444"></path>
    </g>
</svg>