<?xml version="1.0" encoding="UTF-8"?>
<svg width="36px" height="33px" viewBox="0 0 36 33" version="1.1" xmlns="http://www.w3.org/2000/svg" xmlns:xlink="http://www.w3.org/1999/xlink">
    <title>ic_image</title>
    <g id="Pages" stroke="none" stroke-width="1" fill="none" fill-rule="evenodd">
        <g id="7---Add-Photos" transform="translate(-702.000000, -271.000000)" fill="#646368">
            <g id="Group-7" transform="translate(375.000000, 182.000000)">
                <g id="Group-5" transform="translate(30.000000, 70.000000)">
                    <g id="Group-4" transform="translate(188.000000, 19.000000)">
                        <g id="ic_image" transform="translate(109.000000, 0.000000)">
                            <path d="M3.94275144,11.5755 C4.34324748,11.682 4.58024514,12.0945 4.47374619,12.4935 L1.5487751,23.3985 C1.34027716,24.1935 1.81727245,25.0215 2.61376458,25.242 L25.7990354,31.4505 C26.5955276,31.6605 27.4175194,31.1865 27.6245174,30.3945 L28.7960058,26.0535 C28.9040047,25.653 29.3150007,25.4145 29.7154967,25.524 C30.1159928,25.632 30.3514904,26.0445 30.2449915,26.4435 L29.0750031,30.7785 C28.7225065,32.1135 27.5075185,33 26.1785317,33 C25.9265342,33 25.6685367,32.9685 25.4135392,32.901 L2.21926848,26.6895 C0.629284189,26.2515 -0.318706441,24.6045 0.0982894373,23.0145 L3.02476051,12.1065 C3.13275945,11.706 3.54375539,11.4735 3.94275144,11.5755 Z M32.9989643,0 C34.6534479,0 35.9989346,1.3455 35.9989346,3 L35.9999067,18.7382893 C36.000075,18.748981 36.0000156,18.7596728 35.9997289,18.770357 L35.9989346,21 C35.9989346,22.6545 34.6534479,24 32.9989643,24 L8.99920147,24 C7.34471782,24 5.99923112,22.6545 5.99923112,21 L5.99923112,3 C5.99923112,1.3455 7.34471782,0 8.99920147,0 L32.9989643,0 Z M26.2655308,9.825 C26.1095324,9.8115 25.8350351,9.9195 25.6895365,10.095 L19.3250994,17.7315 C19.1901007,17.8935 18.9936027,17.991 18.7821048,18 C18.5691069,18.015 18.3666089,17.931 18.2181104,17.781 L15.5286369,15.0915 C15.2451397,14.8095 14.7516446,14.8095 14.4681474,15.0915 L7.74190753,21.816755 C8.00989315,22.2276319 8.47361048,22.5 8.99920147,22.5 L32.9989643,22.5 C33.8254561,22.5 34.4989494,21.8265 34.4989494,21 L34.498,19.026 L26.8355252,10.086 C26.6900266,9.918 26.4890286,9.825 26.2655308,9.825 Z M32.9989643,1.5 L8.99920147,1.5 C8.17270964,1.5 7.49921629,2.1735 7.49921629,3 L7.499,19.939 L13.4076579,14.031 C14.2566495,13.182 15.7401348,13.182 16.5891265,14.031 L18.6981056,16.14 L24.5360479,9.135 C24.9605437,8.6265 25.5845376,8.331 26.249031,8.325 L26.2655308,8.325 C26.9225243,8.325 27.5450182,8.61 27.9740139,9.1095 L34.498,16.722 L34.4989494,3 C34.4989494,2.1735 33.8254561,1.5 32.9989643,1.5 Z M13.499157,4.5 C15.1536406,4.5 16.4991273,5.8455 16.4991273,7.5 C16.4991273,9.1545 15.1536406,10.5 13.499157,10.5 C11.8446733,10.5 10.4991866,9.1545 10.4991866,7.5 C10.4991866,5.8455 11.8446733,4.5 13.499157,4.5 Z M13.499157,6 C12.6726652,6 11.9991718,6.6735 11.9991718,7.5 C11.9991718,8.3265 12.6726652,9 13.499157,9 C14.3256488,9 14.9991422,8.3265 14.9991422,7.5 C14.9991422,6.6735 14.3256488,6 13.499157,6 Z" id="Combined-Shape"></path>
                        </g>
                    </g>
                </g>
            </g>
        </g>
    </g>
</svg>