<?xml version="1.0" encoding="UTF-8"?>
<svg width="84px" height="84px" viewBox="0 0 84 84" version="1.1" xmlns="http://www.w3.org/2000/svg" xmlns:xlink="http://www.w3.org/1999/xlink">
    <title>ic_order_confirmed</title>
    <g id="Pages" stroke="none" stroke-width="1" fill="none" fill-rule="evenodd">
        <g id="21---Order-Confirmation" transform="translate(-678.000000, -225.000000)" fill="#2B8946" fill-rule="nonzero">
            <path d="M720,308.6 C727.6,308.6 734.633333,306.7 741.1,302.9 C747.366667,299.3 752.3,294.366667 755.9,288.1 C759.7,281.633333 761.6,274.6 761.6,267 C761.6,259.4 759.7,252.366667 755.9,245.9 C752.3,239.633333 747.366667,234.7 741.1,231.1 C734.633333,227.3 727.6,225.4 720,225.4 C712.466667,225.4 705.466667,227.3 699,231.1 C692.733333,234.766667 687.766667,239.733333 684.1,246 C680.3,252.466667 678.4,259.466667 678.4,267 C678.4,274.533333 680.3,281.533333 684.1,288 C687.7,294.266667 692.633333,299.233333 698.9,302.9 C705.366667,306.7 712.4,308.6 720,308.6 Z M711.6,287.9 L690.9,267 L696.8,261.1 L711.6,276 L743.2,244.3 L749.1,250.4 L711.6,287.9 Z" id="ic_order_confirmed"></path>
        </g>
    </g>
</svg>