<?xml version="1.0" encoding="UTF-8"?>
<svg width="24px" height="24px" viewBox="0 0 24 24" version="1.1" xmlns="http://www.w3.org/2000/svg" xmlns:xlink="http://www.w3.org/1999/xlink">
    <title>Icons/ic_phone</title>
    <g id="Icons/ic_phone" stroke="none" stroke-width="1" fill="none" fill-rule="evenodd">
        <path d="M20.016,20.6 C20.288,20.6 20.52,20.504 20.712,20.312 C20.904,20.12 21,19.888 21,19.616 L21,19.616 L21,16.088 C21,15.816 20.904,15.584 20.712,15.392 C20.52,15.2 20.288,15.104 20.016,15.104 C18.704,15.104 17.52,14.92 16.464,14.552 C16.288,14.472 16.104,14.456 15.912,14.504 C15.72,14.552 15.56,14.648 15.432,14.792 L13.224,17 C11.816,16.264 10.544,15.328 9.408,14.192 C8.272,13.056 7.336,11.784 6.6,10.376 L6.6,10.376 L8.808,8.168 C8.952,8.04 9.04,7.88 9.072,7.688 C9.104,7.496 9.096,7.312 9.048,7.136 C8.68,6.08 8.496,4.896 8.496,3.584 C8.496,3.312 8.4,3.08 8.208,2.888 C8.016,2.696 7.784,2.6 7.512,2.6 L7.512,2.6 L3.984,2.6 C3.712,2.6 3.48,2.696 3.288,2.888 C3.096,3.08 3,3.312 3,3.584 C3,5.888 3.448,8.096 4.344,10.208 C5.208,12.24 6.424,14.04 7.992,15.608 C9.56,17.176 11.36,18.392 13.392,19.256 C15.504,20.152 17.712,20.6 20.016,20.6 Z" id="юбн" fill="#444444"></path>
    </g>
</svg>