<?xml version="1.0" encoding="UTF-8"?>
<svg width="24px" height="24px" viewBox="0 0 24 24" version="1.1" xmlns="http://www.w3.org/2000/svg" xmlns:xlink="http://www.w3.org/1999/xlink">
    <title>Icons/ic_search</title>
    <g id="Icons/ic_search" stroke="none" stroke-width="1" fill="none" fill-rule="evenodd">
        <path d="M18.984,20.096 L20.496,18.584 L15.528,13.616 L14.712,13.616 L14.448,13.328 C14.944,12.768 15.324,12.124 15.588,11.396 C15.852,10.668 15.984,9.904 15.984,9.104 C15.984,7.92 15.7,6.832 15.132,5.84 C14.564,4.848 13.792,4.064 12.816,3.488 C11.808,2.896 10.712,2.6 9.528,2.6 C8.344,2.6 7.252,2.888 6.252,3.464 C5.252,4.04 4.46,4.828 3.876,5.828 C3.292,6.828 3,7.92 3,9.104 C3,10.288 3.296,11.384 3.888,12.392 C4.464,13.368 5.252,14.144 6.252,14.72 C7.252,15.296 8.344,15.584 9.528,15.584 C10.312,15.584 11.068,15.452 11.796,15.188 C12.524,14.924 13.168,14.544 13.728,14.048 L13.728,14.048 L14.016,14.312 L14.016,15.104 L18.984,20.096 Z M9.528,13.616 C8.712,13.616 7.96,13.412 7.272,13.004 C6.584,12.596 6.036,12.048 5.628,11.36 C5.22,10.672 5.016,9.92 5.016,9.104 C5.016,8.288 5.22,7.536 5.628,6.848 C6.036,6.16 6.584,5.616 7.272,5.216 C7.96,4.816 8.712,4.616 9.528,4.616 C10.344,4.616 11.096,4.816 11.784,5.216 C12.472,5.616 13.016,6.16 13.416,6.848 C13.816,7.536 14.016,8.288 14.016,9.104 C14.016,9.92 13.816,10.672 13.416,11.36 C13.016,12.048 12.472,12.596 11.784,13.004 C11.096,13.412 10.344,13.616 9.528,13.616 Z" id="" fill="#444444"></path>
    </g>
</svg>