<?xml version="1.0" encoding="UTF-8"?>
<svg width="24px" height="24px" viewBox="0 0 24 24" version="1.1" xmlns="http://www.w3.org/2000/svg" xmlns:xlink="http://www.w3.org/1999/xlink">
    <title>Icons/ic_unselect</title>
    <g id="Icons/ic_unselect" stroke="none" stroke-width="1" fill="none" fill-rule="evenodd">
        <path d="M12,21.584 C13.824,21.584 15.512,21.128 17.064,20.216 C18.568,19.352 19.752,18.168 20.616,16.664 C21.528,15.112 21.984,13.424 21.984,11.6 C21.984,9.776 21.528,8.088 20.616,6.536 C19.752,5.032 18.568,3.848 17.064,2.984 C15.512,2.072 13.824,1.616 12,1.616 C10.192,1.616 8.512,2.072 6.96,2.984 C5.456,3.864 4.264,5.056 3.384,6.56 C2.472,8.112 2.016,9.792 2.016,11.6 C2.016,13.408 2.472,15.088 3.384,16.64 C4.248,18.144 5.432,19.336 6.936,20.216 C8.488,21.128 10.176,21.584 12,21.584 Z M12,19.616 C10.56,19.616 9.216,19.248 7.968,18.512 C6.752,17.808 5.792,16.848 5.088,15.632 C4.352,14.384 3.984,13.04 3.984,11.6 C3.984,10.16 4.352,8.816 5.088,7.568 C5.792,6.352 6.752,5.392 7.968,4.688 C9.216,3.952 10.56,3.584 12,3.584 C13.44,3.584 14.784,3.952 16.032,4.688 C17.248,5.392 18.208,6.352 18.912,7.568 C19.648,8.816 20.016,10.16 20.016,11.6 C20.016,13.04 19.648,14.384 18.912,15.632 C18.208,16.848 17.248,17.808 16.032,18.512 C14.784,19.248 13.44,19.616 12,19.616 Z" id="" fill="#444444"></path>
    </g>
</svg>